<svg width="24" height="24" viewBox="0 0 24 24" fill="none" xmlns="http://www.w3.org/2000/svg">
<g clip-path="url(#clip0)">
<path d="M15.7505 15.7509H1.50046C1.36954 15.7512 1.24082 15.7173 1.1271 15.6524C1.01339 15.5875 0.918635 15.494 0.852274 15.3811C0.785913 15.2682 0.750252 15.14 0.748838 15.0091C0.747424 14.8781 0.780307 14.7491 0.844215 14.6349L7.96921 1.88487C8.03428 1.76832 8.12928 1.67125 8.2444 1.60368C8.35951 1.53611 8.49057 1.50049 8.62406 1.50049C8.75754 1.50049 8.8886 1.53611 9.00372 1.60368C9.11883 1.67125 9.21383 1.76832 9.2789 1.88487L16.4039 14.6349C16.4677 14.7489 16.5006 14.8777 16.4993 15.0083C16.498 15.139 16.4626 15.2671 16.3965 15.3799C16.3305 15.4927 16.2362 15.5862 16.1228 15.6513C16.0095 15.7164 15.8811 15.7508 15.7505 15.7509Z" fill="black"/>
<path d="M15.7499 7.49927C15.2371 7.49915 14.7255 7.5513 14.2232 7.65489L17.714 13.9019C17.9053 14.2444 18.0037 14.6308 17.9996 15.0231C17.9954 15.4153 17.8888 15.7996 17.6903 16.1379C17.4918 16.4762 17.2083 16.7568 16.868 16.9517C16.5276 17.1467 16.1422 17.2492 15.7499 17.2493H8.59352C9.00935 18.5715 9.78348 19.7527 10.83 20.6616C11.8764 21.5705 13.1543 22.1717 14.5218 22.3983C15.8892 22.625 17.2927 22.4682 18.5765 21.9455C19.8603 21.4227 20.974 20.5545 21.7942 19.4371C22.6144 18.3197 23.1088 16.9968 23.2227 15.6154C23.3366 14.234 23.0654 12.848 22.4393 11.6114C21.8132 10.3748 20.8566 9.33585 19.6758 8.60996C18.4949 7.88407 17.136 7.49961 15.7499 7.49927Z" fill="black"/>
</g>
<defs>
<clipPath id="clip0">
<rect width="24" height="24" fill="white" transform="translate(-6.10352e-05 -0.000488281)"/>
</clipPath>
</defs>
</svg>
