<svg width="24" height="24" viewBox="0 0 24 24" fill="none" xmlns="http://www.w3.org/2000/svg">
<path d="M21.75 3.74902H2.25003C2.05112 3.74902 1.86035 3.82804 1.7197 3.96869C1.57905 4.10935 1.50003 4.30011 1.50003 4.49902V19.499C1.50003 19.6979 1.57905 19.8887 1.7197 20.0293C1.86035 20.17 2.05112 20.249 2.25003 20.249H21.75C21.9489 20.249 22.1397 20.17 22.2803 20.0293C22.421 19.8887 22.5 19.6979 22.5 19.499V4.49902C22.5 4.30011 22.421 4.10935 22.2803 3.96869C22.1397 3.82804 21.9489 3.74902 21.75 3.74902ZM12.4603 13.3411C12.3287 13.4434 12.1667 13.4989 12 13.4989C11.8333 13.4989 11.6713 13.4434 11.5397 13.3411L4.19769 7.63074L5.11831 6.44668L12 11.7989L18.8817 6.44668L19.8024 7.63074L12.4603 13.3411Z" fill="black"/>
</svg>
