<svg width="24" height="24" viewBox="0 0 24 24" fill="none" xmlns="http://www.w3.org/2000/svg">
<g clip-path="url(#clip0)">
<path d="M16.8618 5.268C16.7716 4.04027 16.2201 2.89214 15.3183 2.05419C14.4165 1.21623 13.231 0.750488 12 0.750488C10.7689 0.750488 9.58345 1.21623 8.68162 2.05419C7.77978 2.89214 7.22837 4.04027 7.13809 5.268C6.21099 5.35916 5.35085 5.79163 4.72473 6.48142C4.09861 7.1712 3.7512 8.06908 3.74997 9.00065C3.74997 10.8457 4.98606 12.3396 6.67403 12.6785C6.6957 12.6827 6.71519 12.6944 6.72908 12.7115C6.74297 12.7287 6.75037 12.7501 6.74997 12.7722V14.5924C6.74997 15.6161 7.55622 16.4777 8.57809 16.5021C8.82824 16.5083 9.0771 16.4644 9.31003 16.373C9.54295 16.2816 9.75522 16.1445 9.93432 15.9697C10.1134 15.795 10.2557 15.5862 10.3529 15.3556C10.45 15.125 10.5 14.8773 10.5 14.6271V12.3846C10.5 12.3694 10.5038 12.3544 10.5109 12.341C10.518 12.3275 10.5282 12.316 10.5408 12.3074C10.5533 12.2989 10.5678 12.2935 10.5829 12.2917C10.598 12.29 10.6133 12.2919 10.6275 12.2974C11.0653 12.4676 11.5302 12.5577 12 12.5632C12.7335 12.5581 13.439 12.281 13.98 11.7855C13.9973 11.7691 14.0203 11.76 14.0442 11.76C14.068 11.76 14.091 11.7691 14.1084 11.7855C14.7536 12.4 15.609 12.7452 16.5 12.7507C17.4634 12.7511 18.3901 12.3806 19.0878 11.7162C19.7855 11.0517 20.2007 10.1442 20.2472 9.1818C20.2938 8.21944 19.9681 7.27609 19.3378 6.54739C18.7075 5.81869 17.8209 5.36056 16.8618 5.268Z" fill="black"/>
<path d="M11.9999 14.0621V14.6246C11.9987 15.4071 11.7261 16.1649 11.2285 16.7688C10.7309 17.3726 10.0391 17.7851 9.27132 17.9359L11.9999 23.2496L16.3152 14.2459C15.5031 14.2147 14.7112 13.9835 14.0099 13.5728C13.3884 13.8935 12.6993 14.0613 11.9999 14.0621Z" fill="black"/>
</g>
<defs>
<clipPath id="clip0">
<rect width="24" height="24" fill="white"/>
</clipPath>
</defs>
</svg>
