<svg width="24" height="24" viewBox="0 0 24 24" fill="none" xmlns="http://www.w3.org/2000/svg">
<path d="M10.3635 3.00043C8.90714 3.00043 7.48346 3.43229 6.27253 4.24142C5.06159 5.05054 4.11778 6.20057 3.56045 7.54609C3.00311 8.89161 2.85729 10.3722 3.14142 11.8006C3.42554 13.229 4.12686 14.541 5.15667 15.5709C6.18649 16.6007 7.49856 17.302 8.92695 17.5861C10.3553 17.8702 11.8359 17.7244 13.1814 17.1671C14.527 16.6098 15.677 15.6659 16.4861 14.455C17.2952 13.2441 17.7271 11.8204 17.7271 10.364C17.727 8.41111 16.9511 6.53822 15.5702 5.15731C14.1893 3.7764 12.3164 3.00055 10.3635 3.00043V3.00043Z" stroke="black" stroke-width="2" stroke-miterlimit="10"/>
<path d="M15.8572 15.8571L20.9998 20.9998" stroke="black" stroke-width="2" stroke-miterlimit="10" stroke-linecap="round"/>
</svg>
