<svg width="24" height="24" viewBox="0 0 24 24" fill="none" xmlns="http://www.w3.org/2000/svg">
<path d="M14.25 15.7491V17.6241C14.25 18.1214 14.0525 18.5983 13.7008 18.95C13.3492 19.3016 12.8723 19.4991 12.375 19.4991H4.875C4.37772 19.4991 3.90081 19.3016 3.54917 18.95C3.19754 18.5983 3 18.1214 3 17.6241V6.37414C3 5.87686 3.19754 5.39995 3.54917 5.04832C3.90081 4.69669 4.37772 4.49915 4.875 4.49915H12C13.0355 4.49915 14.25 5.33868 14.25 6.37414V8.24914" stroke="black" stroke-width="1.5" stroke-linecap="round" stroke-linejoin="round"/>
<path d="M17.25 15.7494L21 11.9994L17.25 8.24942" stroke="black" stroke-width="1.5" stroke-linecap="round" stroke-linejoin="round"/>
<path d="M8.25002 12.0007H20.25" stroke="black" stroke-width="1.5" stroke-linecap="round" stroke-linejoin="round"/>
</svg>
